<?xml version="1.0" standalone="no"?>
<!DOCTYPE svg PUBLIC "-//W3C//DTD SVG 1.1//EN" "http://www.w3.org/Graphics/SVG/1.1/DTD/svg11.dtd">
<svg xmlns:inkscape="http://www.inkscape.org/namespaces/inkscape" xmlns:sodipodi="http://sodipodi.sourceforge.net/DTD/sodipodi-0.dtd" xmlns="http://www.w3.org/2000/svg" xmlns:svg="http://www.w3.org/2000/svg" width="512" height="512" viewBox="0 0 512 512" version="1.1" id="svg5" xml:space="preserve" inkscape:version="1.2.2 (732a01da63, 2022-12-09)" sodipodi:docname="learnspacelogotext.svg"><sodipodi:namedview id="namedview7" pagecolor="#ffffff" bordercolor="#000000" borderopacity="0.25" inkscape:showpageshadow="2" inkscape:pageopacity="0.0" inkscape:pagecheckerboard="0" inkscape:deskcolor="#d1d1d1" inkscape:document-units="px" showgrid="false" inkscape:zoom="1.0097656" inkscape:cx="250.05803" inkscape:cy="361.47003" inkscape:window-width="1366" inkscape:window-height="697" inkscape:window-x="-8" inkscape:window-y="-8" inkscape:window-maximized="1" inkscape:current-layer="layer1"/><defs id="defs2"/><g inkscape:label="Camada 1" inkscape:groupmode="layer" id="layer1"><g id="g8596" transform="matrix(1.2808642,0,0,1.2809885,134.36505,53.274294)"><path sodipodi:type="star" style="fill:#f94444;fill-opacity:1" id="path3828" inkscape:flatsided="true" sodipodi:sides="6" sodipodi:cx="-243.69334" sodipodi:cy="-205.87886" sodipodi:r1="109.65404" sodipodi:r2="94.963188" sodipodi:arg1="0.52359878" sodipodi:arg2="1.0471976" inkscape:rounded="0" inkscape:randomized="0" d="m -148.73016,-151.05184 -94.96318,54.827017 -94.96319,-54.827017 0,-109.65404 94.96319,-54.82702 94.96318,54.82702 z" transform="translate(338.65653,315.5329)"/><g id="g4909" transform="translate(23.251246,-114.90307)"><circle style="fill:none;fill-opacity:1;stroke:#ffffff;stroke-width:4.31755;stroke-dasharray:none;stroke-opacity:1" id="path4605" cx="71.922638" cy="224.92844" r="18.038517"/><path style="fill:none;fill-opacity:1;stroke:#ffffff;stroke-width:4;stroke-linecap:round;stroke-dasharray:none;stroke-opacity:1" d="m 37.114216,268.20273 c 0,0 -22.058449,-41.49089 14.180431,-67.75095" id="path4661"/><path style="fill:none;fill-opacity:1;stroke:#ffffff;stroke-width:4;stroke-linecap:round;stroke-dasharray:none;stroke-opacity:1" d="m 85.205451,275.13619 c 0,0 -41.835,-3.36885 -44.155085,-43.27392" id="path4661-8"/><path style="fill:none;fill-opacity:1;stroke:#ffffff;stroke-width:4;stroke-linecap:round;stroke-dasharray:none;stroke-opacity:1" d="m 122.8829,237.90315 c 0,0 -20.37482,33.35147 -63.955826,16.7837" id="path4661-8-3" sodipodi:nodetypes="cc"/><path style="fill:none;fill-opacity:1;stroke:#ffffff;stroke-width:4;stroke-linecap:round;stroke-dasharray:none;stroke-opacity:1" d="m 107.05015,182.82226 c 0,0 22.32515,39.40228 -16.219201,67.48431" id="path4661-8-3-0" sodipodi:nodetypes="cc"/><path style="fill:none;fill-opacity:1;stroke:#ffffff;stroke-width:4;stroke-linecap:round;stroke-dasharray:none;stroke-opacity:1" d="m 20.540965,212.47834 c 0,0 22.22916,-34.05637 64.407812,-16.61302" id="path4661-8-3-0-7" sodipodi:nodetypes="cc"/><path style="fill:none;fill-opacity:1;stroke:#ffffff;stroke-width:4;stroke-linecap:round;stroke-dasharray:none;stroke-opacity:1" d="m 59.267441,174.58413 c 0,0 37.838311,3.31901 44.256329,44.25801" id="path4661-8-3-0-7-6" sodipodi:nodetypes="cc"/><path style="fill:none;fill-opacity:1;stroke:#ffffff;stroke-width:4;stroke-linecap:round;stroke-dasharray:none;stroke-opacity:1" d="m 28.843327,213.66344 c 0,0 -3.466151,4.08511 -6.68472,12.13153" id="path4884"/><path style="fill:none;fill-opacity:1;stroke:#ffffff;stroke-width:4;stroke-linecap:round;stroke-dasharray:none;stroke-opacity:1" d="m 41.222437,255.87621 c 0,0 1.856867,9.16054 12.626693,20.7969" id="path4886"/><path style="fill:none;fill-opacity:1;stroke:#ffffff;stroke-width:4;stroke-linecap:round;stroke-dasharray:none;stroke-opacity:1" d="m 83.187621,267.63636 c 0,0 19.558999,3.46615 35.156669,-4.58027" id="path4888"/><path style="fill:none;fill-opacity:1;stroke:#ffffff;stroke-width:4;stroke-linecap:round;stroke-dasharray:none;stroke-opacity:1" d="m 115.00193,236.06963 c 0,0 5.19923,-5.69439 7.0561,-12.5029" id="path4890"/><path style="fill:none;fill-opacity:1;stroke:#ffffff;stroke-width:4;stroke-linecap:round;stroke-dasharray:none;stroke-opacity:1" d="m 103.61315,194.10445 c 0,0 -4.580268,-12.37911 -14.607347,-21.66344" id="path4892"/><path style="fill:none;fill-opacity:1;stroke:#ffffff;stroke-width:4;stroke-linecap:round;stroke-dasharray:none;stroke-opacity:1" d="m 60.533849,182.46809 c 0,0 -19.806576,-4.08511 -34.413926,4.70406" id="path4894"/></g></g><g aria-label="LEARN SPACE" id="text358" style="font-weight:600;font-size:40.9692px;font-family:Inter;-inkscape-font-specification:'Inter Semi-Bold';fill:#f94444;stroke-width:2.19478;stroke-linecap:round"><path d="m 176.73557,403.26443 v -38.30879 h 3.49792 v 35.16628 h 18.25654 v 3.14251 z" style="font-weight:300;font-size:52.6746px;-inkscape-font-specification:'Inter Light';text-align:center;text-anchor:middle;fill:#ffffff" id="path370"/><path d="m 206.36503,403.26443 v -38.30879 h 22.2221 v 3.14251 h -18.72418 v 14.42192 h 17.54573 v 3.14252 h -17.54573 v 14.45933 h 19.09829 v 3.14251 z" style="font-weight:300;font-size:52.6746px;-inkscape-font-specification:'Inter Light';text-align:center;text-anchor:middle;fill:#ffffff" id="path372"/><path d="m 237.678,403.26443 h -3.66627 l 13.93557,-38.30879 h 3.7411 l 13.93557,38.30879 h -3.66627 l -12.00891,-33.76337 h -0.26188 z m 2.63747,-14.68379 h 19.00476 v 3.14252 h -19.00476 z" style="font-weight:300;font-size:52.6746px;-inkscape-font-specification:'Inter Light';text-align:center;text-anchor:middle;fill:#ffffff" id="path374"/><path d="m 272.18959,403.26443 v -38.30879 h 12.36432 q 4.07779,0 6.80879,1.47773 2.7497,1.45902 4.13391,4.05908 1.40291,2.58136 1.40291,5.92964 0,3.34828 -1.40291,5.91093 -1.38421,2.56264 -4.11521,4.00297 -2.73099,1.44032 -6.77137,1.44032 h -10.53118 v -3.19864 h 10.43765 q 2.99287,0 4.97565,-0.99139 2.00149,-0.99139 2.97417,-2.82452 0.99139,-1.83314 0.99139,-4.33967 0,-2.50653 -0.99139,-4.37708 -0.99139,-1.88925 -2.99287,-2.91805 -1.98278,-1.02881 -5.01307,-1.02881 h -8.77286 v 35.16628 z m 16.89104,-17.28385 9.42756,17.28385 h -4.04038 l -9.33403,-17.28385 z" style="font-weight:300;font-size:52.6746px;-inkscape-font-specification:'Inter Light';text-align:center;text-anchor:middle;fill:#ffffff" id="path376"/><path d="m 335.26442,364.95564 v 38.30879 h -3.40439 l -22.63362,-32.07987 h -0.29928 v 32.07987 h -3.49793 v -38.30879 h 3.38569 l 22.70844,32.11728 h 0.29929 v -32.11728 z" style="font-weight:300;font-size:52.6746px;-inkscape-font-specification:'Inter Light';text-align:center;text-anchor:middle;fill:#ffffff" id="path378"/><path d="m 208.4984,436.66984 q -0.20368,-1.90588 -1.71675,-2.96794 -1.49851,-1.06205 -3.89905,-1.06205 -1.68766,0 -2.8952,0.5092 -1.20754,0.50921 -1.84769,1.38213 -0.64014,0.87292 -0.65469,1.99318 0,0.93111 0.42191,1.6149 0.43646,0.68379 1.17845,1.1639 0.74198,0.46556 1.64401,0.78563 0.90202,0.32007 1.81859,0.5383 l 2.79335,0.69834 q 1.68765,0.39282 3.24436,1.06206 1.57127,0.66924 2.80791,1.68765 1.25119,1.01841 1.97862,2.45874 0.72744,1.44032 0.72744,3.3753 0,2.61877 -1.33848,4.61194 -1.33848,1.97863 -3.86996,3.09888 -2.51693,1.1057 -6.09592,1.1057 -3.47714,0 -6.03772,-1.0766 -2.54602,-1.07661 -3.98635,-3.14252 -1.42577,-2.06592 -1.54216,-5.03386 h 5.31028 q 0.11639,1.55671 0.96022,2.58967 0.84382,1.03296 2.19686,1.54216 1.36758,0.50921 3.05523,0.50921 1.76039,0 3.08433,-0.52375 1.33848,-0.53831 2.09501,-1.48397 0.75654,-0.96022 0.77108,-2.24051 -0.0145,-1.16389 -0.68379,-1.92043 -0.66924,-0.77108 -1.87678,-1.28029 -1.193,-0.52375 -2.79335,-0.93111 l -3.38986,-0.87293 q -3.68082,-0.94566 -5.81949,-2.8661 -2.12411,-1.93498 -2.12411,-5.13569 0,-2.63332 1.42578,-4.61195 1.44032,-1.97863 3.9136,-3.06978 2.47328,-1.1057 5.60126,-1.1057 3.17162,0 5.55761,1.1057 2.40054,1.09115 3.76812,3.04068 1.36758,1.93498 1.41123,4.45191 z" style="text-align:center;text-anchor:middle" id="path380"/><path d="m 218.90071,458.27469 v -29.79578 h 11.17342 q 3.4335,0 5.76129,1.28029 2.34235,1.28029 3.53534,3.52079 1.20755,2.22595 1.20755,5.06296 0,2.86609 -1.20755,5.09205 -1.20754,2.22595 -3.56443,3.50624 -2.3569,1.26574 -5.80494,1.26574 h -7.4053 v -4.43736 h 6.67786 q 2.00772,0 3.28801,-0.69834 1.28029,-0.69834 1.89133,-1.92043 0.6256,-1.22209 0.6256,-2.8079 0,-1.58582 -0.6256,-2.79336 -0.61104,-1.20754 -1.90588,-1.87678 -1.28029,-0.68379 -3.30256,-0.68379 h -4.94656 v 25.28567 z" style="text-align:center;text-anchor:middle" id="path382"/><path d="m 245.78674,458.27469 h -5.7613 l 10.48963,-29.79578 h 6.66332 l 10.50417,29.79578 h -5.76129 l -7.95815,-23.68531 h -0.23278 z m 0.18913,-11.68262 h 15.71262 v 4.33552 h -15.71262 z" style="text-align:center;text-anchor:middle" id="path384"/><path d="m 295.71802,438.53208 h -5.44123 q -0.23278,-1.33848 -0.85837,-2.37144 -0.6256,-1.04751 -1.55671,-1.77495 -0.93112,-0.72743 -2.12412,-1.09115 -1.17844,-0.37827 -2.54602,-0.37827 -2.42964,0 -4.30642,1.22209 -1.87679,1.20755 -2.93885,3.54989 -1.06205,2.3278 -1.06205,5.68855 0,3.41895 1.06205,5.7613 1.07661,2.32779 2.93885,3.52079 1.87678,1.17844 4.29187,1.17844 1.33848,0 2.50238,-0.34917 1.17844,-0.36371 2.10956,-1.06205 0.94567,-0.69834 1.58581,-1.71675 0.6547,-1.01841 0.90202,-2.3278 l 5.44123,0.0291 q -0.30553,2.12411 -1.32394,3.98635 -1.00386,1.86224 -2.63332,3.28801 -1.62945,1.41123 -3.81176,2.21141 -2.18231,0.78563 -4.84473,0.78563 -3.92815,0 -7.01248,-1.81859 -3.08433,-1.81859 -4.85927,-5.25209 -1.77495,-3.4335 -1.77495,-8.23458 0,-4.81562 1.7895,-8.23457 1.78949,-3.4335 4.87382,-5.25209 3.08433,-1.81859 6.98338,-1.81859 2.48784,0 4.6265,0.69834 2.13866,0.69834 3.81176,2.05137 1.67311,1.33848 2.74971,3.28801 1.09116,1.93498 1.42578,4.42281 z" style="text-align:center;text-anchor:middle" id="path386"/><path d="m 300.67915,458.27469 v -29.79578 h 19.3789 v 4.52465 h -13.98132 v 8.08909 h 12.97745 v 4.52466 h -12.97745 v 8.13273 h 14.09771 v 4.52465 z" style="text-align:center;text-anchor:middle" id="path388"/></g><path style="fill:#000000" id="path3764" d=""/></g></svg>